<svg xmlns="http://www.w3.org/2000/svg" viewBox="0 0 1756 1361">
  <path d="M-296 420c118-40 205-150 326-178 17-4 35-5 49 4 10 7 16 18 22 29l63 124c30 59 72 126 138 126 45 0 83-32 119-59s87-48 126-25c22 13 35 36 47 58a735 735 0 0 0 104 137c19 20 43 41 71 40 20-1 37-12 53-21a471 471 0 0 1 133-51c12-2 25-4 36 2 10 6 15 17 19 28 32 88 51 187 121 248 14 12 32 23 50 18 11-2 19-9 27-16 70-63 122-144 189-210s158-120 251-106a3114 3114 0 0 1-258-229c-21-22-44-50-35-79 5-14 16-24 28-32 65-41 151-18 222 10s148 62 222 40" stroke="#262626" fill="none" />
  <path d="M-293 429c117-40 203-148 322-178 17-4 35-6 49 2 10 6 16 17 21 27l64 114c30 54 72 116 137 115 44-1 81-33 118-59s85-47 124-27c23 12 39 33 54 55l2 4 33 52c11 17 25 33 38 47l39 34 11 11c13 11 27 23 40 30 7 3 13 5 20 6 9 1 17-2 25-6l19-10a158 158 0 0 1 21-10 721 721 0 0 1 110-22c13-1 26-2 37 5 8 4 13 12 16 20l5 11 22 71c8 28 18 56 32 80a278 278 0 0 0 47 63 197 197 0 0 0 34 28c9 6 20 11 32 13a51 51 0 0 0 21-1c11-2 21-9 29-16a835 835 0 0 0 76-81c35-42 67-86 105-125 64-65 150-119 240-107a2968 2968 0 0 1-245-222c-20-20-42-48-32-76 4-13 15-23 27-31 62-39 143-19 212 8s142 58 213 36" stroke="#535252" fill="none" />
  <path d="M-290 437c116-39 202-145 319-177 16-4 33-7 47 1 10 5 16 15 21 24l65 105c30 49 73 106 136 103 43-2 80-34 116-59s84-45 123-28a143 143 0 0 1 63 56l34 55c12 18 26 36 42 47l41 30 13 11c14 13 28 26 41 34 6 5 12 8 18 9 7 2 14 1 20-2l14-8a67 67 0 0 1 18-7 1513 1513 0 0 1 112-8c13 0 27 1 39 8 8 6 13 13 17 22l5 12c9 25 15 52 22 78 9 30 20 61 36 84 18 25 36 41 54 54a190 190 0 0 0 36 20c10 5 21 8 34 9a67 67 0 0 0 22-2c12-3 23-9 33-17a658 658 0 0 0 74-79c32-41 63-84 99-122 60-64 143-117 228-108a2823 2823 0 0 1-231-214c-20-20-40-47-31-74 4-12 15-22 26-29 59-39 137-20 203 5s136 53 204 32" stroke="#5b5b5a" fill="none" />
  <path d="M-287 446c115-39 200-143 315-177 15-5 33-7 46-1 10 5 16 14 22 22l65 95c31 45 73 97 135 92 43-3 79-34 115-60s82-44 122-29c26 9 47 26 65 49l3 5c13 18 24 39 36 58s28 38 45 48c15 10 28 14 45 25a138 138 0 0 1 14 12l42 38 15 12c7 2 12 2 16 0l10-6a30 30 0 0 1 14-3l50 4 63 3c14 1 29 2 42 11 8 6 14 14 18 23a136 136 0 0 1 5 13c10 27 16 56 23 84 8 33 21 66 40 89 21 25 42 36 61 45a206 206 0 0 0 37 13 141 141 0 0 0 36 5 92 92 0 0 0 24-4 116 116 0 0 0 35-17 533 533 0 0 0 72-77c30-40 59-82 93-119 57-64 136-116 217-110a2676 2676 0 0 1-218-207c-18-19-37-45-29-70 5-13 15-22 25-29 57-37 131-20 194 2s131 50 195 29" stroke="#646463" fill="none" />
  <path d="M-284 454c113-39 199-140 311-176 15-5 32-8 46-2 9 4 15 12 21 19l66 85c31 40 73 87 134 81 42-4 78-35 114-60s80-43 120-31c27 8 51 23 71 47l4 4c14 19 24 41 37 62s30 40 48 49c17 9 31 9 49 20a108 108 0 0 1 15 12c16 14 32 30 43 43l13 14c5 4 8 4 11 3l6-3h9c9 3 27 8 49 12 20 4 43 7 67 10 15 2 30 4 43 14 9 6 15 15 20 25a140 140 0 0 1 6 13c10 29 15 60 22 91 9 34 23 71 45 94 24 24 47 31 68 35a260 260 0 0 0 39 6 228 228 0 0 0 37 0 129 129 0 0 0 25-4 140 140 0 0 0 38-18 434 434 0 0 0 69-74c29-40 57-81 89-118 54-62 128-114 205-111a2532 2532 0 0 1-204-199c-17-19-36-44-27-68 4-12 13-21 23-27 55-37 125-21 185-1s125 46 187 26" stroke="#6d6c6c" fill="none" />
  <path d="M-281 463c112-39 197-138 307-176 15-5 32-9 45-4 9 3 15 10 21 17l67 76c32 35 73 77 133 69 41-5 77-36 112-61s80-41 119-32a140 140 0 0 1 81 49c16 19 26 43 39 65s32 43 52 50c18 7 32 4 51 15 6 3 11 8 17 13 17 15 34 32 44 46l11 17c3 5 5 7 6 6l1-1 6 4c7 5 25 14 47 21 21 6 46 11 70 15 16 3 33 7 46 17 9 7 16 17 21 27a141 141 0 0 1 6 15c11 30 15 64 23 96 8 37 24 76 49 99 27 23 53 26 75 26a395 395 0 0 0 79-6 194 194 0 0 0 27-5c14-5 28-10 41-18s23-19 34-30c12-14 23-28 32-42 27-39 53-79 83-116 51-61 121-112 194-112a2385 2385 0 0 1-191-192c-16-18-33-41-25-65 4-11 13-20 23-26 51-35 118-21 175-3s118 41 178 22" stroke="#757574" fill="none" />
  <path d="M-279 472c112-39 197-136 305-176 14-6 30-10 43-6 9 3 16 9 22 15l67 66c32 31 74 68 132 58 41-7 76-36 111-61s78-41 117-33a141 141 0 0 1 87 45c17 21 28 46 41 69s34 45 55 51c19 6 34 0 55 10a231 231 0 0 1 63 64 106 106 0 0 1 9 19c2 7 1 9 0 10l-2 1c-1 1-1 3 2 7 4 8 22 21 45 30 22 8 48 15 74 21 16 4 34 9 48 20 9 8 16 18 22 29a143 143 0 0 1 6 15c12 33 16 68 23 102 9 40 26 82 54 104 30 23 59 21 82 17l41-9 41-8a317 317 0 0 0 72-25c13-8 24-18 34-29 12-13 21-27 31-41 25-38 49-78 77-113 47-61 113-112 182-114a2236 2236 0 0 1-178-185c-14-17-30-39-22-62 3-10 12-18 21-25 49-33 112-22 166-5s113 37 169 18" stroke="#7e7e7d" fill="none" />
  <path d="M-276 480c111-39 195-133 301-175 14-6 30-10 43-7 9 2 15 7 21 12l69 56c32 26 73 59 130 47 40-8 75-37 109-61s78-40 116-35c33 5 65 12 89 38l5 5c18 21 28 48 42 72s36 47 59 52c20 4 35-5 58 5a193 193 0 0 1 65 69 67 67 0 0 1 6 22c1 7-2 11-4 12l-7 4c-2 1-3 4-2 10 3 11 20 27 44 38 22 11 50 20 78 28 17 5 35 10 49 23 10 8 18 18 24 30a150 150 0 0 1 6 16c13 35 16 72 23 109 9 42 27 87 59 108 33 23 65 17 88 9l43-17c12-4 26-9 43-13l30-8c16-5 32-10 47-18 12-7 22-17 32-28 12-12 21-26 29-40 24-37 46-76 72-111 45-59 106-110 171-114a2093 2093 0 0 1-164-178c-14-17-28-38-21-59 4-10 12-18 20-24 46-33 106-23 157-8s107 32 160 14" stroke="#868686" fill="none" />
  <path d="M-273 489c109-39 194-131 297-175 14-6 29-11 42-9 9 2 15 6 21 10l70 46c32 22 73 49 129 36 39-9 73-38 108-62s77-29 114-36a110 110 0 0 1 100 40c20 22 30 50 44 76s38 50 62 53c22 3 38-10 61 0 8 3 14 8 20 14 21 18 41 39 48 59 4 11 5 19 4 25-1 8-5 13-9 15l-11 6c-4 3-7 7-6 14 0 13 18 33 42 47 23 13 52 23 81 33 18 6 37 13 52 26 10 9 18 20 24 32a153 153 0 0 1 8 17c13 37 15 77 23 115 9 44 28 92 63 113 36 22 70 12 95 0l45-24a309 309 0 0 1 44-18l31-9c17-6 35-10 50-18 12-7 22-16 32-27 11-12 19-26 27-39 22-37 43-74 67-109 41-58 98-108 159-116a1946 1946 0 0 1-151-170c-13-16-26-36-19-56 4-10 11-17 19-23 44-31 100-23 148-11s101 29 151 11" stroke="#8f8f8e" fill="none" />
  <path d="M-270 497c108-38 192-128 293-174 14-6 29-12 41-10 9 0 15 4 22 7l70 37c33 17 74 39 128 24 38-10 72-38 106-62s77-29 114-37c35-8 73 5 101 32l5 5c20 22 30 52 45 79s40 52 65 54c24 2 40-14 65-5 8 3 15 9 21 14 22 19 42 42 49 64 3 11 3 20 2 27a28 28 0 0 1-14 19c-5 2-11 4-15 8-6 3-10 8-11 16-1 17 16 40 41 56 24 16 55 28 85 40 18 7 38 15 54 29a109 109 0 0 1 25 34 156 156 0 0 1 8 18c13 38 16 80 23 120 9 47 30 98 68 118 39 22 76 7 102-9l46-32a248 248 0 0 1 46-22l33-10c17-6 36-11 52-19 12-6 22-15 32-25 11-11 18-25 25-38 20-36 39-73 62-106 37-57 90-107 147-117a1803 1803 0 0 1-138-164c-11-15-23-34-16-53 3-9 10-16 18-22 40-30 93-23 138-13s95 24 142 7" stroke="#989797" fill="none" />
  <path d="M-267 506c107-38 190-126 290-174 13-7 28-12 40-12 8 0 15 3 21 5l71 27c33 12 74 29 127 13 38-11 71-39 105-63s76-29 112-38a116 116 0 0 1 112 34c22 23 32 55 47 83s42 54 69 55c25 0 41-19 68-10 8 3 15 9 22 15 23 20 44 44 50 68 3 12 2 22-1 30-3 10-11 17-18 21l-20 10c-7 5-12 11-14 20-4 20 13 46 39 65 25 19 57 32 88 46 20 8 40 17 56 32a119 119 0 0 1 27 35 164 164 0 0 1 8 19c14 40 16 84 24 127 8 49 31 102 72 122 42 22 82 3 109-18l47-39a220 220 0 0 1 48-26c11-5 22-8 34-12 19-6 38-11 56-19 11-5 21-14 30-23 11-12 18-25 24-38 18-35 36-71 56-104 35-56 83-105 136-118a1657 1657 0 0 1-125-156c-10-14-20-32-14-51 3-8 10-15 17-20 38-29 87-24 129-16s89 20 133 3" stroke="#a0a0a0" fill="none" />
  <path d="M-264 515c106-39 189-124 286-174 13-7 27-13 39-14 8 0 15 2 21 3l72 17c34 8 74 20 127 2 36-12 69-40 103-63s75-29 110-40c38-11 82-2 113 26l6 6c22 23 33 56 48 86s44 57 72 56c26-1 44-24 71-15 9 3 17 9 24 15 24 21 46 47 51 73 3 12 1 23-3 32-5 11-14 19-24 24l-23 13c-8 5-15 12-18 23-6 22 11 52 37 74 26 21 59 36 92 51 20 9 41 19 58 35a129 129 0 0 1 28 38 166 166 0 0 1 8 19c15 42 17 89 24 133 9 52 33 108 77 128 45 20 88-3 116-28 16-15 31-31 49-46a207 207 0 0 1 49-31l36-13c19-7 40-11 58-19 11-5 21-13 30-22 10-11 16-24 22-37 17-34 32-69 51-102 31-55 75-104 124-119a1512 1512 0 0 1-111-149c-9-13-19-30-12-47 3-8 9-15 15-20 35-28 81-25 120-18s83 15 125-1" stroke="#a9a9a8" fill="none" />
  <path d="M-261 523c105-38 187-121 282-173 13-7 27-14 38-15h21l73 7c34 4 74 11 126-9 35-13 68-40 101-63s75-30 109-41a124 124 0 0 1 125 28c24 25 34 59 50 90s46 59 76 57c27-2 45-28 74-20 9 3 18 9 25 16 25 21 48 48 52 76 2 14 0 26-5 35-7 13-18 22-29 27l-27 15c-10 7-19 15-23 27-8 25 9 58 36 82 26 24 61 41 96 58 20 10 42 21 60 38a139 139 0 0 1 29 39 172 172 0 0 1 9 21c15 43 16 92 24 139 8 54 34 112 80 132 49 20 94-7 124-37 16-17 31-36 50-54a201 201 0 0 1 51-35l37-14c20-7 42-11 61-19 11-5 21-12 30-21 9-11 15-23 20-36 15-33 29-67 45-99 28-54 68-103 113-121a1368 1368 0 0 1-98-141c-8-13-16-29-10-45 3-8 9-14 15-19 32-26 74-25 110-21s77 12 116-4" stroke="#b1b1b1" fill="none" />
  <path d="M-259 532c104-38 187-119 279-173 13-8 26-14 38-17l21-2 73-2c35-2 75 1 125-21 34-15 67-41 100-64s72-38 107-42c44-5 91-9 126 20l6 6c25 25 35 61 51 92s48 62 79 59c29-4 47-33 78-25 10 3 18 9 26 16 26 23 50 51 53 81a61 61 0 0 1-8 38c-7 13-20 23-33 30-10 5-22 10-32 17-11 7-21 17-26 30-10 28 6 64 34 91 27 26 64 45 99 63 22 12 44 24 62 42a149 149 0 0 1 31 40 177 177 0 0 1 9 22c16 46 16 96 24 145 9 56 35 118 85 137 52 20 100-12 130-46 18-20 33-41 52-61a200 200 0 0 1 91-55c22-8 44-11 65-19a77 77 0 0 0 28-20c10-10 15-23 19-35 13-32 25-66 40-97 25-53 60-101 101-122a1228 1228 0 0 1-84-134c-7-12-14-27-9-42 3-7 8-13 14-17 30-25 68-26 101-24s71 8 107-8" stroke="#bababa" fill="none" />
  <path d="M-256 540c103-38 185-116 276-173 12-7 25-14 36-17 8-3 15-4 21-5l74-12c35-6 75-9 124-32 34-16 66-42 98-64s71-38 107-44c45-7 94-12 131 18l6 6c26 25 37 63 53 95s50 65 82 60c30-5 50-38 81-30 11 3 20 10 28 17 26 23 52 53 54 85a65 65 0 0 1-10 40c-9 15-24 25-38 33-12 6-25 12-36 19-13 9-24 19-30 34-13 30 4 71 32 99 28 29 66 49 103 70 22 13 45 26 64 44a159 159 0 0 1 32 43 179 179 0 0 1 9 22c17 48 17 101 24 151 9 59 37 124 90 142 55 20 106-17 137-55 18-22 34-46 54-68a202 202 0 0 1 94-61c22-8 45-12 67-19a70 70 0 0 0 28-19c9-10 13-22 17-34 11-32 21-64 34-95 22-52 54-99 90-123a1089 1089 0 0 1-71-127c-6-11-11-25-6-39 2-6 7-11 12-16 27-24 62-26 92-26s65 3 98-12" stroke="#c3c3c2" fill="none" />
  <path d="M-253 549c102-38 184-114 272-173 12-7 24-15 35-19l21-7 75-22c36-10 75-18 123-43 33-17 64-42 97-64s70-38 105-45c47-10 99-16 137 14l7 6c27 26 37 65 54 99s52 67 86 60c31-6 51-41 84-34 11 3 20 10 29 17 27 24 54 56 55 89a69 69 0 0 1-12 43c-11 16-27 28-43 36l-41 22c-14 9-27 21-34 37-14 33 2 77 31 108s68 53 106 76c23 13 47 28 67 47a170 170 0 0 1 32 44 183 183 0 0 1 10 23c18 50 17 105 25 158 9 61 38 128 94 146 58 19 112-21 144-64 18-24 35-52 55-76a206 206 0 0 1 97-66c23-8 48-12 70-20a64 64 0 0 0 28-17c8-9 12-21 15-33 9-31 18-62 29-92 18-51 46-98 78-125a955 955 0 0 1-58-119c-4-11-9-24-4-36 2-6 7-11 11-16 25-22 55-26 83-28s59-1 89-16" stroke="#cbcbcb" fill="none" />
  <path d="M-250 558c101-38 182-112 268-173l34-21 22-9 76-32c35-15 75-27 121-54 32-18 63-43 95-65s69-38 104-46c48-12 103-19 143 12q4 2 7 6c29 26 39 67 56 102s53 69 89 61c33-7 53-46 88-39 11 2 21 10 30 18 28 25 55 57 56 93 0 18-5 33-15 45-12 17-30 30-48 39-14 8-30 15-44 24a96 96 0 0 0-38 41c-17 36-1 83 29 117s70 57 110 81c24 15 48 30 68 51a181 181 0 0 1 34 45 191 191 0 0 1 11 25c18 51 16 108 24 163 9 64 40 134 99 151 61 19 117-26 151-73 19-27 35-57 56-83a212 212 0 0 1 101-72c24-9 49-13 73-20 10-3 19-8 26-15 9-9 12-21 14-33 7-30 14-61 23-90 15-50 39-97 67-126a827 827 0 0 1-44-112c-4-10-7-21-2-33 2-6 6-10 10-14 21-22 48-28 73-31s53-6 80-20" stroke="#d4d4d4" fill="none" />
  <path d="M-247 566c100-37 181-109 264-172l34-22 21-12 77-41c36-20 75-38 120-66 31-19 62-44 94-65s68-38 102-48c50-14 108-22 149 9l8 6c29 28 39 70 57 106s55 72 93 62c34-8 55-51 90-44 12 2 22 10 32 18 29 26 57 60 57 98 0 18-7 34-17 48-13 18-33 31-53 42-16 8-33 16-48 26-18 11-33 25-43 44-18 38-2 89 28 125s73 62 113 88c25 15 50 32 71 53a192 192 0 0 1 35 48 196 196 0 0 1 11 25c19 53 17 113 25 170 9 65 41 138 103 156 64 18 123-32 158-83 19-29 36-61 58-90a218 218 0 0 1 103-78c25-9 51-13 76-20 10-2 19-7 26-14 8-9 10-21 12-32 5-29 11-59 18-88 12-48 31-95 55-127a708 708 0 0 1-31-104c-2-10-4-20 0-31a44 44 0 0 1 9-13c19-20 42-28 64-34s47-9 71-23" stroke="#dddcdc" fill="none" />
  <path d="M-244 575c98-38 179-107 261-172l32-24 21-13 78-52c36-25 75-47 119-77 31-20 61-44 92-66a404 404 0 0 1 101-49c52-16 112-26 155 6l8 7c31 28 41 72 59 109s57 74 96 63c35-10 57-55 94-49 12 2 23 10 32 19 31 26 60 62 59 101 0 20-8 37-19 51-15 19-37 34-58 45l-53 28c-19 13-36 27-46 47-21 42-5 96 26 135 31 38 75 66 117 93 25 17 51 35 73 57a203 203 0 0 1 36 49 201 201 0 0 1 11 26c19 55 17 117 25 176 9 68 43 144 108 161 67 17 129-36 164-92 21-32 38-67 60-98 16-23 36-44 61-61 14-9 30-16 46-22 25-9 52-14 79-20 9-2 18-6 25-13 7-8 9-20 10-31l12-86c9-47 24-93 44-128a602 602 0 0 1-18-97c-1-9-2-18 2-28a47 47 0 0 1 8-12c16-19 36-28 56-36s40-14 62-27" stroke="#e5e5e5" fill="none" />
  <path d="M-241 583c97-37 178-104 257-171l31-25 22-16 78-62c37-29 75-56 118-88 30-21 60-45 91-66a459 459 0 0 1 99-50c53-19 117-30 161 3a101 101 0 0 1 8 6c33 29 43 74 61 113s59 77 99 64c37-11 59-60 98-54 13 2 23 11 33 19 32 28 62 65 60 106-1 20-9 38-21 53-17 21-40 36-63 48-19 10-39 20-57 31-21 13-39 29-50 51-23 44-8 101 24 142s77 71 121 100c26 18 52 37 74 60 15 15 28 32 38 51a206 206 0 0 1 11 26c20 57 18 122 25 182 10 71 44 149 113 166 70 17 135-41 171-101 21-34 39-72 61-105 17-25 37-48 63-65a222 222 0 0 1 47-24c26-9 55-14 82-20 9-2 18-5 24-12 7-8 8-19 9-29l7-84c5-47 16-92 32-130a511 511 0 0 1-4-90c0-7 0-16 4-24a55 55 0 0 1 6-11c14-18 30-29 46-39s35-18 54-31" stroke="#eee" fill="none" />
  <path d="M-239 592c97-37 177-102 254-171l31-27 21-18 79-72a2487 2487 0 0 1 207-165 529 529 0 0 1 98-52c54-21 120-33 167 0a105 105 0 0 1 8 7c33 29 43 76 62 116s61 79 103 65c38-13 60-65 100-59 14 2 25 11 35 19 33 29 64 68 61 111-1 21-10 40-24 56-18 21-43 38-67 51-21 10-42 20-62 33-22 14-41 30-54 53-25 47-9 108 23 152s79 74 124 106c27 18 54 38 77 62 15 16 29 33 39 53a211 211 0 0 1 12 27c20 59 17 126 25 189 9 73 45 154 116 170 74 17 141-46 179-110 21-37 39-77 62-112 18-27 38-52 65-70a219 219 0 0 1 49-25c27-10 56-15 84-20 9-2 18-4 24-11 7-7 7-18 7-28l1-82c3-45 9-90 21-131a441 441 0 0 1 9-82c1-7 3-15 6-22a77 77 0 0 1 6-10c10-17 23-30 37-41l44-35" stroke="#f6f6f6" fill="none" />
  <path d="M-236 600C35 495 180 185 446 69c58-25 133-38 181 4 35 30 45 79 64 120s63 81 106 66c40-14 63-70 104-64 14 2 26 11 36 20 34 29 66 69 62 114-4 52-52 89-99 113s-98 46-123 92c-27 50-12 114 21 161s82 78 128 111 92 70 119 120c35 68 28 148 37 223s47 159 121 175c77 16 147-50 186-119s66-148 130-194c40-28 89-39 138-47 8-1 17-2 22-8 7-8 7-19 6-28-5-71-8-143 5-212s45-138 98-185" stroke="#fff" fill="none" />
</svg>