<svg class="levelGraphDots-01" viewBox="0 0 100 100" xmlns="http://www.w3.org/2000/svg"><circle cx="50" cy="50" r="35" fill="none" stroke="none"></circle><svg width="6" height="6" x="82" y="47" viewBox="0 0 100 100"><circle style="box-shadow: rgba(0, 0, 0, 0.2) 0px 10px 15px;" fill="var(--purple)" r="10" cx="50%" cy="50%"></circle></svg><svg width="6" height="6" x="81.56909192082982" y="52.47520627640808" viewBox="0 0 100 100"><circle style="box-shadow: rgba(0, 0, 0, 0.2) 0px 10px 15px;" fill="var(--purple)" r="10" cx="50%" cy="50%"></circle></svg><svg width="6" height="6" x="80.28697807033038" y="57.81559480312316" viewBox="0 0 100 100"><circle style="box-shadow: rgba(0, 0, 0, 0.2) 0px 10px 15px;" fill="var(--purple)" r="10" cx="50%" cy="50%"></circle></svg><svg width="6" height="6" x="78.18522834659288" y="62.889667490884136" viewBox="0 0 100 100"><circle style="box-shadow: rgba(0, 0, 0, 0.2) 0px 10px 15px;" fill="var(--purple)" r="10" cx="50%" cy="50%"></circle></svg><svg width="6" height="6" x="75.31559480312316" y="67.57248383023656" viewBox="0 0 100 100"><circle style="box-shadow: rgba(0, 0, 0, 0.2) 0px 10px 15px;" fill="var(--purple)" r="10" cx="50%" cy="50%"></circle></svg><svg width="6" height="6" x="71.74873734152916" y="71.74873734152916" viewBox="0 0 100 100"><circle style="box-shadow: rgba(0, 0, 0, 0.2) 0px 10px 15px;" fill="var(--purple)" r="10" cx="50%" cy="50%"></circle></svg><svg width="6" height="6" x="67.57248383023656" y="75.31559480312316" viewBox="0 0 100 100"><circle style="box-shadow: rgba(0, 0, 0, 0.2) 0px 10px 15px;" fill="var(--purple)" r="10" cx="50%" cy="50%"></circle></svg><svg width="6" height="6" x="62.889667490884136" y="78.18522834659288" viewBox="0 0 100 100"><circle style="box-shadow: rgba(0, 0, 0, 0.2) 0px 10px 15px;" fill="var(--purple)" r="10" cx="50%" cy="50%"></circle></svg><svg width="6" height="6" x="57.81559480312316" y="80.28697807033038" viewBox="0 0 100 100"><circle style="box-shadow: rgba(0, 0, 0, 0.2) 0px 10px 15px;" fill="var(--purple)" r="10" cx="50%" cy="50%"></circle></svg><svg width="6" height="6" x="52.47520627640808" y="81.56909192082982" viewBox="0 0 100 100"><circle style="box-shadow: rgba(0, 0, 0, 0.2) 0px 10px 15px;" fill="var(--purple)" r="10" cx="50%" cy="50%"></circle></svg><svg width="6" height="6" x="47" y="82" viewBox="0 0 100 100"><circle style="box-shadow: rgba(0, 0, 0, 0.2) 0px 10px 15px;" fill="var(--purple)" r="10" cx="50%" cy="50%"></circle></svg><svg width="6" height="6" x="41.52479372359192" y="81.56909192082982" viewBox="0 0 100 100"><circle style="box-shadow: rgba(0, 0, 0, 0.2) 0px 10px 15px;" fill="var(--purple)" r="10" cx="50%" cy="50%"></circle></svg><svg width="6" height="6" x="36.184405196876845" y="80.28697807033038" viewBox="0 0 100 100"><circle style="box-shadow: rgba(0, 0, 0, 0.2) 0px 10px 15px;" fill="var(--purple)" r="10" cx="50%" cy="50%"></circle></svg><svg width="6" height="6" x="31.110332509115864" y="78.18522834659288" viewBox="0 0 100 100"><circle style="box-shadow: rgba(0, 0, 0, 0.2) 0px 10px 15px;" fill="var(--purple)" r="10" cx="50%" cy="50%"></circle></svg><svg width="6" height="6" x="26.427516169763443" y="75.31559480312316" viewBox="0 0 100 100"><circle style="box-shadow: rgba(0, 0, 0, 0.2) 0px 10px 15px;" fill="var(--purple)" r="10" cx="50%" cy="50%"></circle></svg><svg width="6" height="6" x="22.25126265847084" y="71.74873734152916" viewBox="0 0 100 100"><circle style="box-shadow: rgba(0, 0, 0, 0.2) 0px 10px 15px;" fill="var(--purple)" r="10" cx="50%" cy="50%"></circle></svg><svg width="6" height="6" x="18.684405196876842" y="67.57248383023656" viewBox="0 0 100 100"><circle style="box-shadow: rgba(0, 0, 0, 0.2) 0px 10px 15px;" fill="var(--purple)" r="10" cx="50%" cy="50%"></circle></svg><svg width="6" height="6" x="15.814771653407128" y="62.889667490884136" viewBox="0 0 100 100"><circle style="box-shadow: rgba(0, 0, 0, 0.2) 0px 10px 15px;" fill="var(--purple)" r="10" cx="50%" cy="50%"></circle></svg><svg width="6" height="6" x="13.71302192966963" y="57.81559480312316" viewBox="0 0 100 100"><circle style="box-shadow: rgba(0, 0, 0, 0.2) 0px 10px 15px;" fill="var(--purple)" r="10" cx="50%" cy="50%"></circle></svg><svg width="6" height="6" x="12.43090807917018" y="52.47520627640809" viewBox="0 0 100 100"><circle style="box-shadow: rgba(0, 0, 0, 0.2) 0px 10px 15px;" fill="var(--purple)" r="10" cx="50%" cy="50%"></circle></svg><svg width="6" height="6" x="12" y="47.00000000000001" viewBox="0 0 100 100"><circle style="box-shadow: rgba(0, 0, 0, 0.2) 0px 10px 15px;" fill="var(--purple)" r="10" cx="50%" cy="50%"></circle></svg><svg width="6" height="6" x="12.43090807917018" y="41.52479372359193" viewBox="0 0 100 100"><circle style="box-shadow: rgba(0, 0, 0, 0.2) 0px 10px 15px;" fill="var(--purple)" r="10" cx="50%" cy="50%"></circle></svg><svg width="6" height="6" x="13.713021929669623" y="36.184405196876845" viewBox="0 0 100 100"><circle style="box-shadow: rgba(0, 0, 0, 0.2) 0px 10px 15px;" fill="var(--purple)" r="10" cx="50%" cy="50%"></circle></svg><svg width="6" height="6" x="15.814771653407124" y="31.110332509115864" viewBox="0 0 100 100"><circle style="box-shadow: rgba(0, 0, 0, 0.2) 0px 10px 15px;" fill="var(--purple)" r="10" cx="50%" cy="50%"></circle></svg><svg width="6" height="6" x="18.684405196876835" y="26.427516169763443" viewBox="0 0 100 100"><circle style="box-shadow: rgba(0, 0, 0, 0.2) 0px 10px 15px;" fill="var(--purple)" r="10" cx="50%" cy="50%"></circle></svg><svg width="6" height="6" x="22.251262658470832" y="22.25126265847084" viewBox="0 0 100 100"><circle style="box-shadow: rgba(0, 0, 0, 0.2) 0px 10px 15px;" fill="var(--purple)" r="10" cx="50%" cy="50%"></circle></svg><svg width="6" height="6" x="26.427516169763436" y="18.684405196876842" viewBox="0 0 100 100"><circle style="box-shadow: rgba(0, 0, 0, 0.2) 0px 10px 15px;" fill="var(--purple)" r="10" cx="50%" cy="50%"></circle></svg><svg width="6" height="6" x="31.110332509115857" y="15.814771653407128" viewBox="0 0 100 100"><circle style="box-shadow: rgba(0, 0, 0, 0.2) 0px 10px 15px;" fill="var(--purple)" r="10" cx="50%" cy="50%"></circle></svg><svg width="6" height="6" x="36.18440519687684" y="13.71302192966963" viewBox="0 0 100 100"><circle style="box-shadow: rgba(0, 0, 0, 0.2) 0px 10px 15px;" fill="var(--purple)" r="10" cx="50%" cy="50%"></circle></svg><svg width="6" height="6" x="41.52479372359191" y="12.43090807917018" viewBox="0 0 100 100"><circle style="box-shadow: rgba(0, 0, 0, 0.2) 0px 10px 15px;" fill="var(--purple)" r="10" cx="50%" cy="50%"></circle></svg><svg width="6" height="6" x="46.99999999999999" y="12" viewBox="0 0 100 100"><circle style="box-shadow: rgba(0, 0, 0, 0.2) 0px 10px 15px;" fill="var(--purple)" r="10" cx="50%" cy="50%"></circle></svg><svg width="6" height="6" x="52.47520627640807" y="12.43090807917018" viewBox="0 0 100 100"><circle style="box-shadow: rgba(0, 0, 0, 0.2) 0px 10px 15px;" fill="var(--purple)" r="10" cx="50%" cy="50%"></circle></svg><svg width="6" height="6" x="57.815594803123155" y="13.713021929669623" viewBox="0 0 100 100"><circle style="box-shadow: rgba(0, 0, 0, 0.2) 0px 10px 15px;" fill="var(--purple)" r="10" cx="50%" cy="50%"></circle></svg><svg width="6" height="6" x="62.889667490884136" y="15.81477165340712" viewBox="0 0 100 100"><circle style="box-shadow: rgba(0, 0, 0, 0.2) 0px 10px 15px;" fill="var(--purple)" r="10" cx="50%" cy="50%"></circle></svg><svg width="6" height="6" x="67.57248383023655" y="18.684405196876835" viewBox="0 0 100 100"><circle style="box-shadow: rgba(0, 0, 0, 0.2) 0px 10px 15px;" fill="var(--neutral)" r="5" cx="50%" cy="50%"></circle></svg><svg width="6" height="6" x="71.74873734152916" y="22.251262658470832" viewBox="0 0 100 100"><circle style="box-shadow: rgba(0, 0, 0, 0.2) 0px 10px 15px;" fill="var(--neutral)" r="5" cx="50%" cy="50%"></circle></svg><svg width="6" height="6" x="75.31559480312316" y="26.427516169763432" viewBox="0 0 100 100"><circle style="box-shadow: rgba(0, 0, 0, 0.2) 0px 10px 15px;" fill="var(--neutral)" r="5" cx="50%" cy="50%"></circle></svg><svg width="6" height="6" x="78.18522834659288" y="31.110332509115857" viewBox="0 0 100 100"><circle style="box-shadow: rgba(0, 0, 0, 0.2) 0px 10px 15px;" fill="var(--neutral)" r="5" cx="50%" cy="50%"></circle></svg><svg width="6" height="6" x="80.28697807033038" y="36.18440519687683" viewBox="0 0 100 100"><circle style="box-shadow: rgba(0, 0, 0, 0.2) 0px 10px 15px;" fill="var(--neutral)" r="5" cx="50%" cy="50%"></circle></svg><svg width="6" height="6" x="81.56909192082982" y="41.52479372359191" viewBox="0 0 100 100"><circle style="box-shadow: rgba(0, 0, 0, 0.2) 0px 10px 15px;" fill="var(--neutral)" r="5" cx="50%" cy="50%"></circle></svg></svg>